<svg width="24" height="24" viewBox="0 0 24 24" fill="none" xmlns="http://www.w3.org/2000/svg">
<path d="M8.88672 21.3335C9.71515 21.3335 10.3867 20.6619 10.3867 19.8335C10.3867 19.0051 9.71515 18.3335 8.88672 18.3335C8.05829 18.3335 7.38672 19.0051 7.38672 19.8335C7.38672 20.6619 8.05829 21.3335 8.88672 21.3335Z" fill="#359740"/>
<path d="M18 21.3335C18.8284 21.3335 19.5 20.6619 19.5 19.8335C19.5 19.0051 18.8284 18.3335 18 18.3335C17.1716 18.3335 16.5 19.0051 16.5 19.8335C16.5 20.6619 17.1716 21.3335 18 21.3335Z" fill="#359740"/>
<path d="M22.0532 3.58015C21.9911 3.50368 21.9129 3.4419 21.8242 3.39925C21.7354 3.3566 21.6383 3.33414 21.5398 3.33349H7.65983L8.09316 4.66682H20.6665L18.8865 12.6668H8.8865L5.83983 3.02015C5.80688 2.91779 5.74965 2.82492 5.67303 2.74947C5.59641 2.67401 5.50268 2.61821 5.39983 2.58682L2.6665 1.74682C2.58245 1.72099 2.49414 1.71197 2.40661 1.72028C2.31908 1.72858 2.23404 1.75404 2.15635 1.79521C1.99944 1.87835 1.88199 2.02042 1.82983 2.19015C1.77767 2.35989 1.79508 2.5434 1.87822 2.7003C1.96136 2.85721 2.10342 2.97466 2.27316 3.02682L4.6665 3.76015L7.7265 13.4268L6.63316 14.3202L6.5465 14.4068C6.27605 14.7185 6.12276 15.1147 6.11303 15.5272C6.10329 15.9397 6.23772 16.3428 6.49316 16.6668C6.67487 16.8878 6.90577 17.0632 7.16739 17.1789C7.42901 17.2947 7.71409 17.3476 7.99983 17.3335H19.1265C19.3033 17.3335 19.4729 17.2633 19.5979 17.1382C19.7229 17.0132 19.7932 16.8436 19.7932 16.6668C19.7932 16.49 19.7229 16.3204 19.5979 16.1954C19.4729 16.0704 19.3033 16.0002 19.1265 16.0002H7.89316C7.81639 15.9975 7.7416 15.9752 7.676 15.9352C7.61041 15.8952 7.55622 15.839 7.51869 15.772C7.48116 15.705 7.46155 15.6294 7.46175 15.5526C7.46195 15.4758 7.48195 15.4003 7.51983 15.3335L9.1265 14.0002H19.4198C19.5739 14.0039 19.7246 13.9542 19.8461 13.8594C19.9677 13.7645 20.0526 13.6305 20.0865 13.4802L22.1998 4.14682C22.2201 4.04743 22.2174 3.94473 22.192 3.84653C22.1666 3.74833 22.1191 3.65723 22.0532 3.58015Z" fill="#359740"/>
</svg>
