<svg width="97" height="21" viewBox="0 0 97 21" fill="none" xmlns="http://www.w3.org/2000/svg">
<g clip-path="url(#clip0_0_81)">
<path d="M0 18.2738L2.34072 15.6633C3.51215 16.9686 5.09913 17.4041 6.81627 17.4041C8.94984 17.4041 10.095 16.5048 10.095 14.8514C10.095 14.1256 9.91306 13.5166 9.52294 13.1107C9.15806 12.7343 8.74162 12.5312 7.88297 12.386L5.64573 12.0379C4.05875 11.777 2.88732 11.226 2.05516 10.3267C1.17036 9.3398 0.728499 8.00518 0.728499 6.26552C0.728499 2.58112 3.17395 0 7.18097 0C9.73008 0 11.5783 0.69623 13.1653 2.40761L10.875 4.93071C9.70466 3.6833 8.29958 3.50979 7.07623 3.50979C5.15087 3.50979 4.21416 4.69937 4.21416 6.12029C4.21416 6.64191 4.37063 7.19309 4.76075 7.59904C5.12563 7.97672 5.72397 8.29527 6.47771 8.41223L8.66428 8.76034C10.3547 9.02125 11.4216 9.54287 12.2019 10.3548C13.1916 11.3993 13.6334 12.9074 13.6334 14.7356C13.6334 18.7376 10.6414 21 6.76435 21C3.95419 21 1.82062 20.3331 0 18.2738Z" fill="#359740"/>
<path d="M17.042 20.8263V0.17334H29.244V3.77052H20.6578V8.61512H27.9699V12.211H20.6578V17.2291H29.244V20.8263H17.042Z" fill="#359740"/>
<path d="M32.7842 20.8263V0.17334H44.9862V3.77052H36.4V8.61512H43.7122V12.211H36.4V17.2291H44.9862V20.8263H32.7842Z" fill="#359740"/>
<path d="M75.5077 20.8263L71.8906 12.5887H69.2887V20.8263H65.6729V0.17334H72.932C76.7043 0.17334 78.9416 3.04583 78.9416 6.49668C78.9416 9.39745 77.3546 11.196 75.5594 11.9218L79.6966 20.8263H75.5077ZM72.6973 3.77052H69.2887V9.22413H72.6973C74.2843 9.22413 75.3257 8.09239 75.3257 6.49668C75.3257 4.90226 74.2843 3.77052 72.6973 3.77052Z" fill="#359740"/>
<path d="M93.2264 20.8263L92.1342 17.1713H85.5516L84.432 20.8263H80.6597L87.3988 0.17334H90.2343L96.9999 20.8263H93.2264ZM88.9075 6.26534L86.5655 13.7783H91.171L88.9075 6.26534Z" fill="#359740"/>
<path d="M60.1041 2.14654C58.8808 0.783458 57.1373 0.17334 55.212 0.17334H48.5259V20.8263H52.5798C53.9763 16.8156 56.09 12.4402 54.6493 5.95762C56.5685 12.7178 54.6702 17.0139 53.3305 20.8263H55.212C57.1373 20.8263 58.8808 20.2173 60.1039 18.8542C62.1858 16.5329 61.9774 13.5163 61.9774 10.4124C61.9776 7.30969 62.186 4.46675 60.1041 2.14654ZM54.5232 18.3866C55.5609 15.7913 56.6516 11.6284 55.0997 6.52496C57.1764 9.12609 57.4979 12.9698 57.0578 14.7235C60.8161 10.5127 56.9536 5.59298 53.0999 3.49677C55.5572 8.10451 55.1866 12.446 53.2786 17.6692C47.2841 13.4707 54.4006 8.12195 52.3837 2.3654C61.0892 6.09753 62.6411 14.4905 54.5232 18.3866Z" fill="#359740"/>
</g>
<defs>
<clipPath id="clip0_0_81">
<rect width="97" height="21" fill="white"/>
</clipPath>
</defs>
</svg>
